<svg width="144" height="32" viewBox="0 0 144 32" fill="none" xmlns="http://www.w3.org/2000/svg">
<path fill-rule="evenodd" clip-rule="evenodd" d="M29.981 23.454C27.3946 28.532 22.2525 32 16.3449 32H1.32916V23.454H29.981" fill="#5367FF"/>
<path fill-rule="evenodd" clip-rule="evenodd" d="M30.0252 8.54597H0V0H16.3679C22.2849 0 27.4347 3.46798 30.0252 8.54597" fill="#5367FF"/>
<path fill-rule="evenodd" clip-rule="evenodd" d="M31.6172 16.0004C31.6172 17.3307 31.4492 18.6623 31.1163 19.9735H3.50891V12.0273H31.1163C31.4492 13.3381 31.6172 14.6696 31.6172 16.0004" fill="#5367FF"/>
<path d="M51.5522 12.9052H49.1622C49.1186 12.6033 49.0294 12.3352 48.8949 12.1008C48.7603 11.8629 48.5875 11.6605 48.3765 11.4936C48.1655 11.3267 47.9218 11.1988 47.6453 11.1101C47.3725 11.0213 47.076 10.9769 46.7559 10.9769C46.1775 10.9769 45.6737 11.1172 45.2444 11.3977C44.8152 11.6747 44.4823 12.0795 44.2459 12.6122C44.0094 13.1413 43.8912 13.7841 43.8912 14.5405C43.8912 15.3182 44.0094 15.9716 44.2459 16.5007C44.486 17.0298 44.8206 17.4293 45.2499 17.6992C45.6791 17.9691 46.1757 18.104 46.7395 18.104C47.056 18.104 47.3488 18.0632 47.618 17.9815C47.8909 17.8998 48.1328 17.7809 48.3437 17.6246C48.5547 17.4648 48.7293 17.2713 48.8676 17.044C49.0094 16.8167 49.1077 16.5575 49.1622 16.2663L51.5522 16.277C51.4903 16.7777 51.3358 17.2607 51.0884 17.7258C50.8447 18.1875 50.5155 18.6012 50.1007 18.967C49.6897 19.3292 49.1986 19.6168 48.6275 19.8299C48.06 20.0394 47.418 20.1442 46.7013 20.1442C45.7046 20.1442 44.8134 19.924 44.0276 19.4837C43.2455 19.0433 42.6271 18.4059 42.1724 17.5714C41.7213 16.7369 41.4958 15.7265 41.4958 14.5405C41.4958 13.3508 41.725 12.3388 42.1833 11.5042C42.6417 10.6697 43.2637 10.0341 44.0495 9.59728C44.8352 9.15694 45.7191 8.93677 46.7013 8.93677C47.3488 8.93677 47.9491 9.02555 48.502 9.2031C49.0585 9.38066 49.5514 9.63989 49.9807 9.98081C50.41 10.3182 50.7592 10.7319 51.0284 11.2219C51.3012 11.712 51.4758 12.2731 51.5522 12.9052ZM52.8954 19.995V11.8132H55.149V13.2408H55.2363C55.3891 12.7329 55.6456 12.3494 56.0057 12.0902C56.3658 11.8274 56.7806 11.696 57.2498 11.696C57.3662 11.696 57.4917 11.7031 57.6263 11.7173C57.7609 11.7315 57.8791 11.751 57.981 11.7759V13.7894C57.8718 13.7574 57.7209 13.729 57.5281 13.7042C57.3353 13.6793 57.1589 13.6669 56.9988 13.6669C56.6569 13.6669 56.3513 13.7397 56.0821 13.8853C55.8165 14.0273 55.6056 14.2262 55.4491 14.4819C55.2963 14.7376 55.22 15.0323 55.22 15.3661V19.995H52.8954ZM60.5656 23.0632C60.2709 23.0632 59.9945 23.0401 59.7362 22.994C59.4816 22.9514 59.2706 22.8963 59.1033 22.8288L59.6271 21.1349C59.8999 21.2166 60.1455 21.261 60.3637 21.2681C60.5856 21.2752 60.7766 21.2255 60.9366 21.119C61.1004 21.0124 61.2331 20.8313 61.335 20.5756L61.4714 20.2294L58.4649 11.8132H60.9094L62.6445 17.8217H62.7319L64.4834 11.8132H66.9443L63.6868 20.8793C63.5304 21.3196 63.3176 21.7031 63.0483 22.0298C62.7828 22.3601 62.4463 22.614 62.0389 22.7915C61.6315 22.9727 61.1404 23.0632 60.5656 23.0632ZM67.8265 23.0632V11.8132H70.1183V13.1875H70.2219C70.3238 12.9673 70.4712 12.7436 70.6639 12.5163C70.8604 12.2855 71.115 12.0937 71.4278 11.941C71.7444 11.7848 72.1372 11.7067 72.6064 11.7067C73.2176 11.7067 73.7815 11.8629 74.298 12.1754C74.8146 12.4844 75.2274 12.9513 75.5366 13.5763C75.8458 14.1978 76.0004 14.9773 76.0004 15.9148C76.0004 16.8274 75.8494 17.598 75.5475 18.2265C75.2493 18.8516 74.8418 19.3256 74.3252 19.6488C73.8123 19.9684 73.2376 20.1282 72.601 20.1282C72.1499 20.1282 71.7662 20.0554 71.4496 19.9098C71.1368 19.7642 70.8804 19.5813 70.6803 19.3611C70.4802 19.1374 70.3274 18.9119 70.2219 18.6846H70.151V23.0632H67.8265ZM70.1019 15.9041C70.1019 16.3906 70.171 16.8149 70.3093 17.1772C70.4475 17.5394 70.6476 17.8217 70.9095 18.0242C71.1714 18.223 71.4897 18.3224 71.8644 18.3224C72.2427 18.3224 72.5628 18.2212 72.8247 18.0188C73.0866 17.8128 73.2849 17.5287 73.4195 17.1665C73.5577 16.8008 73.6268 16.3799 73.6268 15.9041C73.6268 15.4318 73.5595 15.0163 73.425 14.6577C73.2904 14.299 73.0921 14.0184 72.8302 13.816C72.5683 13.6136 72.2464 13.5124 71.8644 13.5124C71.4861 13.5124 71.1659 13.6101 70.904 13.8054C70.6457 14.0007 70.4475 14.2777 70.3093 14.6363C70.171 14.995 70.1019 15.4176 70.1019 15.9041ZM81.7007 11.8132V13.5177H76.6534V11.8132H81.7007ZM77.7993 9.85296H80.1238V17.4808C80.1238 17.6903 80.1566 17.8537 80.222 17.9708C80.2875 18.0845 80.3784 18.1644 80.4948 18.2105C80.6149 18.2567 80.7531 18.2798 80.9096 18.2798C81.0187 18.2798 81.1278 18.2709 81.2369 18.2532C81.3461 18.2318 81.4298 18.2159 81.4879 18.2052L81.8535 19.8938C81.7372 19.9293 81.5734 19.9702 81.3625 20.0163C81.1515 20.066 80.895 20.0962 80.5931 20.1068C80.0329 20.1282 79.5418 20.0554 79.1199 19.8885C78.7014 19.7216 78.3759 19.4624 78.1431 19.1108C77.9103 18.7592 77.7957 18.3153 77.7993 17.7791V9.85296ZM86.6044 20.1548C85.7569 20.1548 85.0239 19.979 84.4055 19.6274C83.7907 19.2724 83.316 18.7787 82.9813 18.1466C82.6466 17.511 82.4793 16.7741 82.4793 15.9361C82.4793 15.0909 82.6466 14.3523 82.9813 13.7202C83.316 13.0845 83.7907 12.5909 84.4055 12.2393C85.0239 11.8842 85.7569 11.7067 86.6044 11.7067C87.452 11.7067 88.1832 11.8842 88.798 12.2393C89.4163 12.5909 89.8929 13.0845 90.2276 13.7202C90.5622 14.3523 90.7296 15.0909 90.7296 15.9361C90.7296 16.7741 90.5622 17.511 90.2276 18.1466C89.8929 18.7787 89.4163 19.2724 88.798 19.6274C88.1832 19.979 87.452 20.1548 86.6044 20.1548ZM86.6153 18.397C87.0009 18.397 87.3229 18.2905 87.5812 18.0774C87.8394 17.8608 88.0341 17.5661 88.165 17.1932C88.2996 16.8203 88.3669 16.3959 88.3669 15.9201C88.3669 15.4442 88.2996 15.0199 88.165 14.647C88.0341 14.2741 87.8394 13.9794 87.5812 13.7628C87.3229 13.5461 87.0009 13.4378 86.6153 13.4378C86.2261 13.4378 85.8987 13.5461 85.6332 13.7628C85.3713 13.9794 85.173 14.2741 85.0384 14.647C84.9075 15.0199 84.842 15.4442 84.842 15.9201C84.842 16.3959 84.9075 16.8203 85.0384 17.1932C85.173 17.5661 85.3713 17.8608 85.6332 18.0774C85.8987 18.2905 86.2261 18.397 86.6153 18.397ZM95.2264 19.995V9.08592H99.6352C100.483 9.08592 101.205 9.24394 101.801 9.55999C102.398 9.87249 102.853 10.3075 103.166 10.865C103.482 11.419 103.64 12.0582 103.64 12.7827C103.64 13.5071 103.48 14.1463 103.16 14.7003C102.84 15.2542 102.376 15.6857 101.769 15.9947C101.165 16.3036 100.434 16.4581 99.5752 16.4581H96.7651V14.6097H99.1933C99.648 14.6097 100.023 14.5334 100.317 14.3807C100.616 14.2244 100.838 14.0096 100.983 13.7361C101.132 13.4591 101.207 13.1413 101.207 12.7827C101.207 12.4204 101.132 12.1044 100.983 11.8345C100.838 11.5611 100.616 11.3498 100.317 11.2006C100.019 11.0479 99.6407 10.9716 99.1823 10.9716H97.5891V19.995H95.2264ZM107.148 9.08592V19.995H104.824V9.08592H107.148ZM111.093 20.1495C110.559 20.1495 110.082 20.0589 109.664 19.8779C109.245 19.6931 108.914 19.4215 108.671 19.0628C108.43 18.7006 108.31 18.2496 108.31 17.7098C108.31 17.2553 108.396 16.8736 108.567 16.5646C108.738 16.2557 108.971 16.0071 109.265 15.8189C109.56 15.6307 109.895 15.4886 110.269 15.3927C110.648 15.2969 111.044 15.2294 111.459 15.1903C111.946 15.1406 112.339 15.0944 112.637 15.0518C112.936 15.0057 113.152 14.9382 113.287 14.8494C113.421 14.7606 113.489 14.6292 113.489 14.4552V14.4233C113.489 14.0859 113.379 13.8249 113.161 13.6403C112.947 13.4556 112.641 13.3633 112.245 13.3633C111.826 13.3633 111.493 13.4538 111.246 13.6349C110.999 13.8125 110.835 14.0362 110.755 14.3061L108.605 14.1356C108.714 13.6385 108.929 13.2088 109.249 12.8466C109.569 12.4808 109.982 12.2003 110.488 12.005C110.997 11.8061 111.586 11.7067 112.255 11.7067C112.721 11.7067 113.167 11.7599 113.592 11.8665C114.022 11.973 114.402 12.1381 114.733 12.3618C115.067 12.5856 115.331 12.8732 115.524 13.2248C115.717 13.5728 115.813 13.99 115.813 14.4765V19.995H113.609V18.8604H113.543C113.409 19.1161 113.229 19.3416 113.003 19.5369C112.777 19.7287 112.506 19.8796 112.19 19.9897C111.873 20.0962 111.508 20.1495 111.093 20.1495ZM111.759 18.5834C112.101 18.5834 112.403 18.5177 112.665 18.3863C112.927 18.2514 113.132 18.0703 113.281 17.843C113.43 17.6158 113.505 17.3583 113.505 17.0707V16.2024C113.432 16.2485 113.332 16.2912 113.205 16.3302C113.081 16.3658 112.941 16.3995 112.785 16.4315C112.628 16.4599 112.472 16.4865 112.315 16.5113C112.159 16.5326 112.017 16.5522 111.89 16.5699C111.617 16.609 111.379 16.6712 111.175 16.7564C110.971 16.8416 110.813 16.957 110.7 17.1026C110.588 17.2447 110.531 17.4222 110.531 17.6353C110.531 17.9442 110.646 18.1804 110.875 18.3437C111.108 18.5036 111.402 18.5834 111.759 18.5834ZM119.633 15.2649V19.995H117.309V11.8132H119.524V13.2567H119.623C119.809 12.7809 120.12 12.4045 120.556 12.1275C120.992 11.8469 121.522 11.7067 122.143 11.7067C122.726 11.7067 123.234 11.8309 123.666 12.0795C124.099 12.3281 124.435 12.6832 124.676 13.1449C124.915 13.603 125.036 14.1498 125.036 14.7855V19.995H122.711V15.1903C122.715 14.6896 122.584 14.299 122.318 14.0184C122.053 13.7344 121.687 13.5923 121.221 13.5923C120.909 13.5923 120.632 13.658 120.392 13.7894C120.156 13.9208 119.97 14.1126 119.835 14.3647C119.705 14.6133 119.637 14.9133 119.633 15.2649ZM130.38 20.1548C129.518 20.1548 128.776 19.9844 128.154 19.6434C127.535 19.299 127.059 18.8125 126.724 18.1839C126.39 17.5518 126.222 16.8043 126.222 15.9414C126.222 15.0998 126.39 14.3611 126.724 13.7255C127.059 13.0898 127.53 12.5944 128.137 12.2393C128.748 11.8842 129.465 11.7067 130.287 11.7067C130.84 11.7067 131.355 11.7937 131.831 11.9677C132.312 12.1381 132.73 12.3956 133.087 12.74C133.446 13.0845 133.727 13.5177 133.926 14.0398C134.127 14.5582 134.227 15.1655 134.227 15.8615V16.4847H127.149V15.0785H132.039C132.039 14.7518 131.966 14.4623 131.821 14.2102C131.675 13.9581 131.473 13.761 131.214 13.6189C130.96 13.4733 130.664 13.4006 130.326 13.4006C129.973 13.4006 129.659 13.4805 129.387 13.6403C129.118 13.7965 128.907 14.0078 128.754 14.2741C128.601 14.5369 128.523 14.8299 128.519 15.153V16.49C128.519 16.8949 128.595 17.2447 128.748 17.5394C128.905 17.8341 129.125 18.0614 129.409 18.2212C129.692 18.381 130.029 18.4609 130.418 18.4609C130.677 18.4609 130.913 18.4254 131.128 18.3544C131.342 18.2834 131.526 18.1769 131.678 18.0348C131.831 17.8928 131.948 17.7188 132.028 17.5127L134.178 17.6513C134.069 18.1555 133.845 18.5959 133.506 18.9723C133.172 19.3451 132.739 19.6364 132.208 19.8458C131.681 20.0519 131.071 20.1548 130.38 20.1548ZM139.894 11.8132V13.5177H134.847V11.8132H139.894ZM135.993 9.85296H138.317V17.4808C138.317 17.6903 138.35 17.8537 138.416 17.9708C138.481 18.0845 138.572 18.1644 138.688 18.2105C138.809 18.2567 138.947 18.2798 139.103 18.2798C139.212 18.2798 139.321 18.2709 139.43 18.2532C139.54 18.2318 139.623 18.2159 139.682 18.2052L140.047 19.8938C139.931 19.9293 139.767 19.9702 139.556 20.0163C139.345 20.066 139.089 20.0962 138.787 20.1068C138.227 20.1282 137.736 20.0554 137.314 19.8885C136.895 19.7216 136.569 19.4624 136.337 19.1108C136.104 18.7592 135.989 18.3153 135.993 17.7791V9.85296Z" fill="white"/>
</svg>
